HIERARCHY
ROOT Hips
{
    OFFSET 0.000000 0.000000 0.000000
    CHANNELS 6 Xposition Yposition Zposition Zrotation Xrotation Yrotation
        JOINT Spine1
        {
            OFFSET -0.000000 23.269398 0.000000
            CHANNELS 3 Zrotation Xrotation Yrotation
            JOINT Neck
            {
                OFFSET -0.000000 18.032967 0.000000
                CHANNELS 3 Zrotation Xrotation Yrotation
                JOINT Head
                {
                    OFFSET -0.000000 13.091072 1.689171
                    CHANNELS 3 Zrotation Xrotation Yrotation
                    End Site
                    {
                        OFFSET -0.000000 16.891708 0.000000
                    }
                }
            }
            JOINT LeftShoulder
            {
                OFFSET 3.336773 14.146137 -0.012206
                CHANNELS 3 Zrotation Xrotation Yrotation
                JOINT LeftArm
                {
                    OFFSET 11.765518 0.000000 0.000000
                    CHANNELS 3 Zrotation Xrotation Yrotation
                    JOINT LeftForeArm
                    {
                        OFFSET 25.163450 0.000000 0.000000
                        CHANNELS 3 Zrotation Xrotation Yrotation
                        JOINT LeftHand
                        {
                            OFFSET 21.783554 0.000000 0.000000
                            CHANNELS 3 Zrotation Xrotation Yrotation
                            End Site
                            {
                                OFFSET 12.668781 0.000000 0.000000
                            }
                        }
                    }
                }
            }
            JOINT RightShoulder
            {
                OFFSET -3.409204 14.146137 -0.012206
                CHANNELS 3 Zrotation Xrotation Yrotation
                JOINT RightArm
                {
                    OFFSET -11.765518 0.000000 0.000000
                    CHANNELS 3 Zrotation Xrotation Yrotation
                    JOINT RightForeArm
                    {
                        OFFSET -25.163450 0.000000 0.000000
                        CHANNELS 3 Zrotation Xrotation Yrotation
                        JOINT RightHand
                        {
                            OFFSET -21.783554 0.000000 0.000000
                            CHANNELS 3 Zrotation Xrotation Yrotation
                            End Site
                            {
                                OFFSET -12.668781 0.000000 0.000000
                            }
                        }
                    }
                }
            }
        }
        JOINT LeftUpLeg
    {
        OFFSET 8.445854 0.000000 0.000000
        CHANNELS 3 Zrotation Xrotation Yrotation
        JOINT LeftLeg
        {
            OFFSET -0.000000 -40.674755 0.000000
            CHANNELS 3 Zrotation Xrotation Yrotation
            JOINT LeftFoot
            {
                OFFSET -0.000000 -37.111794 0.000000
                CHANNELS 3 Zrotation Xrotation Yrotation
                JOINT LeftToeBase
                {
                    OFFSET -0.000000 -5.489805 12.668781
                    CHANNELS 3 Zrotation Xrotation Yrotation
                    End Site
                    {
                        OFFSET -0.000000 0.000000 3.378341
                    }
                }
            }
        }
    }
    JOINT RightUpLeg
    {
        OFFSET -8.445854 0.000000 0.000000
        CHANNELS 3 Zrotation Xrotation Yrotation
        JOINT RightLeg
        {
            OFFSET -0.000000 -40.674755 0.000000
            CHANNELS 3 Zrotation Xrotation Yrotation
            JOINT RightFoot
            {
                OFFSET -0.000000 -37.111794 0.000000
                CHANNELS 3 Zrotation Xrotation Yrotation
                JOINT RightToeBase
                {
                    OFFSET -0.000000 -5.489805 12.668781
                    CHANNELS 3 Zrotation Xrotation Yrotation
                    End Site
                    {
                        OFFSET -0.000000 0.000000 3.378341
                    }
                }
            }
        }
    }
}
MOTION
Frames:    4
Frame Time:    0.008333
76.818779    83.391129    22.961460    9.463181    -1.673348    83.615707    0.738733    12.322921    1.495241    8.683431    4.872576    15.852446    -38.326355    -1.716296    22.212460    -9.977200    -29.649536    -26.889809    101.814713    -7.426553    130.970078    89.416023    -68.546204    86.253311    -74.261620    -86.329437    -79.949402    -4.663769    7.471277    -2.700685    43.125507    35.917797    40.997829    -0.453639    -8.193374    26.645580    -7.801865    -8.570507    7.155449    10.348506    -12.927567    -1.473689    -26.769157    52.279129    9.918574    -3.552159    -2.754155    15.970421    -7.710217    -9.370169    1.303252    6.059725    1.549306    -27.810373    -16.433769    13.219279    44.017403    3.069157    -11.144466    0.867503    -0.470688    -1.118974    3.663894    
77.248428    83.482269    22.944492    9.027369    -1.354638    83.657677    0.509944    11.813304    1.712942    8.715864    4.935563    15.523367    -38.426308    -1.589947    21.947716    -9.843508    -29.327909    -26.574415    101.819099    -7.324651    131.003235    90.823456    -68.462685    87.788864    -83.579666    -85.757751    -89.291862    -4.662888    7.352919    -2.715395    59.675816    18.748821    39.090996    1.528552    2.880113    15.825843    -6.475941    1.860489    14.208352    9.774795    -13.936680    -1.941884    -25.157389    50.394859    10.737283    -4.216146    -3.211196    14.444571    -7.453430    -9.151148    0.955561    5.715710    1.282642    -29.151863    -17.003101    12.992313    45.344906    3.022071    -12.517145    1.378738    -1.406123    0.947046    2.593456    
77.765457    83.524796    22.905306    8.950982    -1.225937    83.632950    0.324678    11.672283    1.968600    8.858253    4.948438    15.187263    -38.453190    -1.379315    21.711155    -9.591411    -29.002480    -26.272444    101.819046    -7.224236    131.061630    -87.841225    68.091949    90.747177    -90.501991    83.176018    84.915253    -4.669440    7.262774    -2.632349    59.634823    18.377230    39.399887    1.401447    2.636309    16.400515    -6.683423    1.606818    14.111545    9.554504    -14.535124    -1.869007    -23.758474    48.804989    9.556785    -4.721899    -4.002182    14.884310    -7.535624    -9.256230    0.946981    5.609273    1.437027    -30.349501    -17.334829    12.771584    46.440334    6.124145    -12.830424    1.075812    -3.482379    3.468495    4.095410    
78.323898    83.546890    22.824858    8.552310    -1.203549    83.441460    0.332989    11.246114    2.238657    8.886169    5.080965    14.927372    -38.507412    -1.386188    21.469200    -9.380907    -28.763931    -25.860609    101.928017    -7.082945    131.107178    89.707634    -68.273895    86.502785    -78.954208    -84.962036    -84.478897    -4.905763    7.140992    -2.414882    59.826946    17.990835    39.584404    1.250255    2.372227    17.019890    -6.825205    1.344603    14.033183    9.392324    -15.248121    -2.135227    -22.591396    46.814404    9.526313    -5.112822    -4.694651    14.913214    -7.451705    -9.139421    0.987908    5.569130    1.337840    -31.228983    -17.733675    12.583367    47.163822    6.112497    -13.027240    1.354466    -3.379741    3.276655    4.139760    
